HIERARCHY
ROOT Hips
{
	OFFSET 0.00000 0.00000 0.00000
	CHANNELS 6 Xposition Yposition Zposition Zrotation Yrotation Xrotation 
	JOINT LHipJoint
	{
		OFFSET 0 0 0
		CHANNELS 3 Zrotation Yrotation Xrotation
		JOINT LeftHip
		{
			OFFSET 1.75344 -1.53157 0.77399
			CHANNELS 3 Zrotation Yrotation Xrotation
			JOINT LeftKnee
			{
				OFFSET 2.25415 -6.19323 0.00000
				CHANNELS 3 Zrotation Yrotation Xrotation
				JOINT LeftAnkle
				{
					OFFSET 2.30342 -6.32861 0.00000
					CHANNELS 3 Zrotation Yrotation Xrotation
					JOINT LeftToe
					{
						OFFSET 0.10958 -0.30108 1.49206
						CHANNELS 3 Zrotation Yrotation Xrotation
						End Site
						{
							OFFSET 0.00000 -0.00000 0.77783
						}
					}
				}
			}
		}
	}
	JOINT RHipJoint
	{
		OFFSET 0 0 0
		CHANNELS 3 Zrotation Yrotation Xrotation
		JOINT RightHip
		{
			OFFSET -1.81912 -1.53156 0.77399
			CHANNELS 3 Zrotation Yrotation Xrotation
			JOINT RightKnee
			{
				OFFSET -2.22882 -6.12365 0.00000
				CHANNELS 3 Zrotation Yrotation Xrotation
				JOINT RightAnkle
				{
					OFFSET -2.21943 -6.09785 0.00000
					CHANNELS 3 Zrotation Yrotation Xrotation
					JOINT RightToe
					{
						OFFSET -0.18931 -0.52012 1.59379
						CHANNELS 3 Zrotation Yrotation Xrotation
						End Site
						{
							OFFSET -0.00000 -0.00000 0.84686
						}
					}
				}
			}
		}
	}
	JOINT lowerback
	{
		OFFSET 0 0 0
		CHANNELS 3 Zrotation Yrotation Xrotation
		JOINT Chest
		{
			OFFSET -0.00200 1.66634 -0.14248
			CHANNELS 3 Zrotation Yrotation Xrotation
			JOINT Chest2
			{
				OFFSET -0.00875 1.64542 0.09514
				CHANNELS 3 Zrotation Yrotation Xrotation
				JOINT lowerneck
				{
					OFFSET 0 0 0
					CHANNELS 3 Zrotation Yrotation Xrotation
					JOINT Neck
					{
						OFFSET 0.02257 1.59605 0.00839
						CHANNELS 3 Zrotation Yrotation Xrotation
						JOINT Head
						{
							OFFSET -0.10214 1.57530 -0.23335
							CHANNELS 3 Zrotation Yrotation Xrotation
							End Site
							{
								OFFSET -0.03588 1.60717 -0.08062
							}
						}
					}
				}
				JOINT LeftCollar
				{
					OFFSET 0 0 0
					CHANNELS 3 Zrotation Yrotation Xrotation
					JOINT LeftShoulder
					{
						OFFSET 2.54983 1.10186 0.40078
CHANNELS 3 Zrotation Xrotation Yrotation
						JOINT LeftElbow
						{
OFFSET 0 -4.288400 0.000000
CHANNELS 3 Zrotation Xrotation Yrotation
							JOINT LeftWrist
							{
OFFSET 0 -3.065520 -0.000000
CHANNELS 3 Zrotation Xrotation Yrotation
								JOINT lhand
								{
									OFFSET 0 0 0
CHANNELS 3 Zrotation Xrotation Yrotation
									JOINT LFingers
									{
OFFSET 0 -0.753040 0.000000
CHANNELS 3 Zrotation Xrotation Yrotation
										End Site
										{
OFFSET 0 -0.607120 0.000000
										}
									}
								}
								JOINT LThumb
								{
OFFSET 0 0.000000 0.000000
CHANNELS 3 Zrotation Xrotation Yrotation
									End Site
									{
OFFSET 0 -0.616390 0.616390
									}
								}
							}
						}
					}
				}
				JOINT RightCollar
				{
					OFFSET 0 0 0
					CHANNELS 3 Zrotation Yrotation Xrotation
					JOINT RightShoulder
					{
						OFFSET -2.60909 1.35448 0.21802
CHANNELS 3 Zrotation Xrotation Yrotation
						JOINT RightElbow
						{
OFFSET 0 -4.521720 -0.000000
CHANNELS 3 Zrotation Xrotation Yrotation
							JOINT RightWrist
							{
OFFSET 0 -2.891400 0.000000
CHANNELS 3 Zrotation Xrotation Yrotation
								JOINT rhand
								{
									OFFSET 0 0 0
CHANNELS 3 Zrotation Xrotation Yrotation
									JOINT RFingers
									{
OFFSET 0 -0.680540 0.000000
CHANNELS 3 Zrotation Xrotation Yrotation
										End Site
										{
OFFSET 0 -0.548670 0.000000
										}
									}
								}
								JOINT RThumb
								{
OFFSET 0 0.000000 0.000000
CHANNELS 3 Zrotation Xrotation Yrotation
									End Site
									{
OFFSET 0 -0.557050 0.557050
									}
								}
							}
						}
					}
				}
			}
		}
	}
}
MOTION
Frames: 6
Frame Time: 0.008333333333333333
8.591900 15.549500 22.246900 -179.088000 4.002400 179.664000 0.000000 0.000000 0.000000 -24.167200 -20.417100 2.997100 1.334500 7.314800 20.651300 1.039900 12.614100 -27.578400 2.764400 -10.303600 -29.965500 0.000000 0.000000 0.000000 26.517000 17.021000 7.025800 -0.496500 -4.517500 12.537200 0.924000 -21.967300 -23.474800 -0.002000 0.290300 -0.797600 -0.158400 0.383800 7.134300 0.193500 0.605800 -4.583000 0.199000 0.350000 -8.859600 -5.927500 -1.933000 -7.375800 7.735800 -2.553400 7.882300 3.196700 -1.022900 3.729200 -0.000000 -0.000000 0.000000 1.432500 11.478300 -17.824500 20.430100 -31.157100 5.752200 -10.148700 21.745700 32.238200 0.000000 0.000000 0.000000 -7.125000 0.000000 0.000000 -23.145500 -0.504500 -25.521900 -0.000000 -0.000000 0.000000 -5.069700 12.489800 33.717000 -23.188800 -34.294600 -7.244400 -12.347200 38.209000 55.156300 0.000000 0.000000 0.000000 7.125000 0.000000 -0.000000 75.292000 76.334800 -61.308000
8.590603 15.551971 22.253509 -179.072558 3.886150 179.720210 0.000000 0.000000 0.000000 -24.106789 -20.449529 2.885235 1.333821 7.313009 20.645988 1.020628 12.569008 -27.396180 2.785155 -10.338870 -30.081256 0.000000 0.000000 0.000000 26.508599 17.012970 6.944388 -0.495821 -4.514412 12.528429 0.923876 -21.979345 -23.500064 -0.001321 0.230075 -0.632181 -0.170198 0.359463 7.370445 0.205051 0.575780 -4.674975 0.219878 0.337831 -9.099513 -6.003477 -1.934606 -7.380803 7.815977 -2.553894 7.894469 3.234132 -1.020800 3.735686 0.000000 0.000000 0.000000 1.718864 11.802652 -17.668346 20.422132 -31.147649 5.748123 -9.962526 21.668920 32.204227 0.000000 0.000000 0.000000 -7.125000 0.000000 0.000000 -23.051981 -0.474356 -25.386130 0.000000 0.000000 0.000000 -5.385219 12.605000 33.812681 -23.384486 -34.506161 -7.355153 -11.848843 37.581853 55.502766 0.000000 0.000000 0.000000 7.125000 0.000000 0.000000 76.781821 76.192545 -62.585890
8.589117 15.553924 22.259436 -179.050760 3.787436 179.769124 0.000000 0.000000 0.000000 -24.047532 -20.485913 2.788318 1.334648 7.315219 20.652610 1.008112 12.504614 -27.245714 2.774084 -10.319695 -30.018703 0.000000 0.000000 0.000000 26.512416 17.022100 6.887880 -0.494529 -4.508592 12.511937 0.925777 -21.999252 -23.520125 -0.000688 0.153960 -0.423050 -0.155985 0.331030 7.533525 0.207280 0.540605 -4.724367 0.217994 0.320390 -9.249436 -6.043321 -1.927526 -7.355794 7.876711 -2.543184 7.822084 3.259960 -1.014980 3.710205 0.000000 0.000000 0.000000 2.038018 12.075807 -17.534014 20.424144 -31.150015 5.749178 -9.868674 21.579053 32.115336 0.000000 0.000000 0.000000 -7.125000 0.000000 0.000000 -23.008741 -0.392026 -25.294426 0.000000 0.000000 0.000000 -5.697678 12.651066 33.951251 -23.553338 -34.688227 -7.450888 -11.410252 36.989780 55.726451 0.000000 0.000000 0.000000 7.125000 0.000000 0.000000 77.757711 76.057539 -63.376494
8.587326 15.555036 22.264254 -179.018639 3.717204 179.806185 0.000000 0.000000 0.000000 -23.990148 -20.528719 2.715677 1.337921 7.323929 20.678615 1.006567 12.408871 -27.146821 2.711326 -10.212092 -29.666554 0.000000 0.000000 0.000000 26.536073 17.059100 6.871820 -0.492244 -4.498339 12.482905 0.930966 -22.031928 -23.531738 -0.000132 0.052040 -0.142924 -0.099528 0.295945 7.577937 0.194370 0.497057 -4.704601 0.179141 0.294385 -9.253204 -6.024481 -1.906339 -7.282041 7.905866 -2.514275 7.612376 3.266940 -1.003121 3.632808 0.000000 0.000000 0.000000 2.410427 12.265810 -17.435121 20.442366 -31.171573 5.758567 -9.924760 21.467929 31.937255 0.000000 0.000000 0.000000 -7.125000 0.000000 0.000000 -23.047162 -0.224940 -25.274289 0.000000 0.000000 0.000000 -6.005167 12.584849 34.159476 -23.678606 -34.822391 -7.522232 -11.068727 36.454669 55.750726 0.000000 0.000000 0.000000 7.125000 0.000000 0.000000 77.898916 75.934309 -63.375691
8.584687 15.554829 22.266483 -179.019474 3.660342 179.806526 0.000000 0.000000 0.000000 -23.996697 -20.555895 2.704803 1.340960 7.331885 20.702407 1.015286 12.309503 -27.121181 2.648568 -10.102559 -29.310027 0.000000 0.000000 0.000000 26.526870 17.053023 6.879487 -0.490523 -4.490674 12.461312 0.947689 -22.099678 -23.495849 -0.000330 0.097853 -0.268804 -0.066092 0.268957 7.626492 0.174399 0.460195 -4.669770 0.144854 0.272429 -9.243131 -5.950371 -1.891508 -7.248587 7.847173 -2.493512 7.449135 3.237199 -0.997005 3.574995 0.000000 0.000000 0.000000 2.767818 12.460145 -17.329307 20.476830 -31.212527 5.776430 -10.151789 21.460002 31.808699 0.000000 0.000000 0.000000 -7.125000 0.000000 0.000000 -23.170936 -0.103142 -25.384795 0.000000 0.000000 0.000000 -6.344576 12.555353 34.360169 -23.828780 -34.982353 -7.608264 -10.635777 35.951573 55.646195 0.000000 0.000000 0.000000 7.125000 0.000000 0.000000 77.551164 75.762493 -62.846056
8.581793 15.554220 22.267638 -179.031566 3.600433 179.793549 0.000000 0.000000 0.000000 -24.025302 -20.579698 2.715380 1.343898 7.339544 20.725323 1.024651 12.225532 -27.114411 2.601657 -10.020278 -29.042597 0.000000 0.000000 0.000000 26.508147 17.031929 6.897205 -0.489085 -4.484287 12.443331 0.966179 -22.176656 -23.460708 -0.000727 0.178750 -0.491093 -0.040627 0.242762 7.679579 0.153330 0.423277 -4.633599 0.113904 0.250869 -9.234366 -5.870755 -1.878191 -7.234292 7.769118 -2.474538 7.320859 3.200511 -0.991814 3.530735 0.000000 0.000000 0.000000 3.116833 12.663750 -17.218750 20.513770 -31.256437 5.795593 -10.416925 21.488684 31.747449 0.000000 0.000000 0.000000 -7.125000 0.000000 0.000000 -23.310488 -0.044107 -25.542776 0.000000 0.000000 0.000000 -6.699616 12.551429 34.569439 -23.989459 -35.153012 -7.700544 -10.201150 35.458590 55.466431 0.000000 0.000000 0.000000 7.125000 0.000000 0.000000 76.916012 75.579286 -62.026769
